<svg xmlns="http://www.w3.org/2000/svg" viewBox="0 0 80 40" width="80" height="40">
  <!-- Фон кнопки -->
  <rect x="1" y="1" width="78" height="38" rx="4" ry="4"
        fill="#1a1a7a" stroke="#4a4aff" stroke-width="1.5"/>

  <!-- Шумный сигнал (тонкая, бледная красная линия под синей) -->
  <polyline
    points="4,20 6,13 8,27 10,9 12,31 14,19 16,7 18,29 20,16 22,25 24,11 26,33 28,19 30,6 32,28 34,22 36,12 38,32 40,17 42,8 44,27 46,15 48,31 50,10 52,24 54,20 56,29 58,12 60,22 62,8 64,30 66,18 68,27 70,13 72,23 74,17 76,20"
    fill="none"
    stroke="#883333"
    stroke-width="1"
    stroke-linecap="round"
    stroke-linejoin="round"
    stroke-dasharray="2,2"/>

  <!-- Отфильтрованная синусоида (гладкая синяя волна поверх) -->
  <polyline
    points="4,20 8,14 12,8 16,14 20,20 24,26 28,32 32,26 36,20 40,14 44,8 48,14 52,20 56,26 60,32 64,26 68,20 72,14 76,8"
    fill="none"
    stroke="#4488ff"
    stroke-width="2.5"
    stroke-linecap="round"
    stroke-linejoin="round"/>

  <!-- Подпись -->
  <text x="40" y="38" text-anchor="middle"
        font-family="monospace" font-size="5" fill="#aaaaff">FILTERED</text>
</svg>
